<?xml version="1.0" encoding="UTF-8"?>
<svg xmlns="http://www.w3.org/2000/svg" xmlns:xlink="http://www.w3.org/1999/xlink" width="15pt" height="15pt" viewBox="0 0 25 25" version="1.1">
<g id="surface1">
<path style=" stroke:none;fill-rule:nonzero;fill:#0B72B9;fill-opacity:1;" d="M 25 12.5 C 25 19.402344 19.402344 25 12.5 25 C 5.597656 25 0 19.402344 0 12.5 C 0 5.597656 5.597656 0 12.5 0 C 19.402344 0 25 5.597656 25 12.5 Z M 25 12.5 "/>
<path style=" stroke:none;fill-rule:nonzero;fill:#0B72B9;fill-opacity:1;" d="M 25 12.5 C 25 19.375 19.375 25 12.5 25 C 8.515625 25 5 23.203125 2.734375 20.3125 C 4.84375 22.03125 7.578125 23.046875 10.546875 23.046875 C 17.421875 23.046875 23.046875 17.421875 23.046875 10.546875 C 23.046875 7.578125 22.03125 4.84375 20.3125 2.734375 C 23.203125 5 25 8.515625 25 12.5 Z M 25 12.5 "/>
<path style=" stroke:none;fill-rule:nonzero;fill:rgb(100%,100%,100%);fill-opacity:1;" d="M 18.203125 18.203125 C 17.734375 18.671875 16.953125 18.671875 16.484375 18.203125 L 12.5 14.21875 L 8.515625 18.203125 C 8.046875 18.671875 7.265625 18.671875 6.796875 18.203125 C 6.328125 17.734375 6.328125 16.953125 6.796875 16.484375 L 10.78125 12.5 L 6.796875 8.515625 C 6.328125 8.046875 6.328125 7.265625 6.796875 6.796875 C 7.265625 6.328125 8.046875 6.328125 8.515625 6.796875 L 12.5 10.78125 L 16.484375 6.796875 C 16.953125 6.328125 17.734375 6.328125 18.203125 6.796875 C 18.671875 7.265625 18.671875 8.046875 18.203125 8.515625 L 14.21875 12.5 L 18.203125 16.484375 C 18.671875 16.953125 18.671875 17.734375 18.203125 18.203125 Z M 18.203125 18.203125 "/>
</g>
</svg>
